# xmcd CD database file
#
# Track frame offsets:
#	150
#	21718
#	41827
#	59670
#	78928
#	107672
#	130295
#	159755
#	183833
#	207438
#	283512
#
# Disc length: 4038 seconds
#
# Revision: 2
# Processed by: cddbd v1.5.2PL0 Copyright (c) Steve Scherf et al.
# Submitted via: CDex 1.51
#
DISCID=9a0fc40b
DTITLE=Paul Personne - Il Etait Une Fois La Route - CD1
DYEAR=2006
DGENRE=Blues
TTITLE0=Barjoland (Live)
TTITLE1=Ca Va Rouler (Live)
TTITLE2=T'Arrête Pas D'me Manquer (Live)
TTITLE3=Quelqu'un Appelle (Live)
TTITLE4=Comme Un Etranger (Live)
TTITLE5=Qu'est-ce Qui A Changé (Live)
TTITLE6=J'me Taille (Live)
TTITLE7=Pas B'soin (Live)
TTITLE8=Aphonie Cérébrale (Live)
TTITLE9=Big Blues (Live)
TTITLE10=Renvoie La Balle (Live)
EXTD=YEAR: 2006
EXTT0=
EXTT1=
EXTT2=
EXTT3=
EXTT4=
EXTT5=
EXTT6=
EXTT7=
EXTT8=
EXTT9=
EXTT10=
PLAYORDER=
